<svg width="166" height="41" viewBox="0 0 166 41" fill="none" xmlns="http://www.w3.org/2000/svg">
<g filter="url(#filter0_d_1_38)">
<path d="M15.079 22.1023C15.079 23.3023 14.723 24.2583 14.011 24.9703C13.211 25.8183 12.159 26.2423 10.855 26.2423C9.60699 26.2423 8.55099 25.8103 7.68699 24.9463C6.82299 24.0823 6.39099 23.0183 6.39099 21.7543C6.39099 20.4903 6.82299 19.4263 7.68699 18.5623C8.55099 17.6983 9.60699 17.2663 10.855 17.2663C11.487 17.2663 12.083 17.3783 12.643 17.6023C13.203 17.8263 13.663 18.1423 14.023 18.5503L13.231 19.3423C12.967 19.0223 12.623 18.7743 12.199 18.5983C11.783 18.4143 11.335 18.3223 10.855 18.3223C9.91899 18.3223 9.12699 18.6463 8.47899 19.2943C7.83899 19.9503 7.51899 20.7703 7.51899 21.7543C7.51899 22.7383 7.83899 23.5583 8.47899 24.2143C9.12699 24.8623 9.91899 25.1863 10.855 25.1863C11.711 25.1863 12.423 24.9463 12.991 24.4663C13.559 23.9863 13.887 23.3263 13.975 22.4863H10.855V21.4543H15.019C15.059 21.6783 15.079 21.8943 15.079 22.1023ZM17.098 26.0503H15.994V20.1703H17.05V21.1303H17.098C17.21 20.8183 17.438 20.5543 17.782 20.3383C18.134 20.1143 18.478 20.0023 18.814 20.0023C19.134 20.0023 19.406 20.0503 19.63 20.1463L19.294 21.2143C19.158 21.1583 18.942 21.1303 18.646 21.1303C18.23 21.1303 17.866 21.2983 17.554 21.6343C17.25 21.9703 17.098 22.3623 17.098 22.8103V26.0503ZM25.5134 26.0503H24.4574V25.2343H24.4094C24.2414 25.5223 23.9814 25.7623 23.6294 25.9543C23.2854 26.1463 22.9254 26.2423 22.5494 26.2423C21.8294 26.2423 21.2734 26.0383 20.8814 25.6303C20.4974 25.2143 20.3054 24.6263 20.3054 23.8663V20.1703H21.4094V23.7943C21.4334 24.7543 21.9174 25.2343 22.8614 25.2343C23.3014 25.2343 23.6694 25.0583 23.9654 24.7063C24.2614 24.3463 24.4094 23.9183 24.4094 23.4223V20.1703H25.5134V26.0503ZM29.7373 25.2343C30.2653 25.2343 30.7093 25.0343 31.0693 24.6343C31.4293 24.2423 31.6093 23.7343 31.6093 23.1103C31.6093 22.4943 31.4293 21.9863 31.0693 21.5863C30.7093 21.1863 30.2653 20.9863 29.7373 20.9863C29.2013 20.9863 28.7533 21.1863 28.3933 21.5863C28.0413 21.9863 27.8653 22.4943 27.8653 23.1103C27.8653 23.7343 28.0413 24.2463 28.3933 24.6463C28.7533 25.0383 29.2013 25.2343 29.7373 25.2343ZM29.9173 26.2423C29.4853 26.2423 29.0893 26.1503 28.7293 25.9663C28.3773 25.7823 28.1053 25.5383 27.9133 25.2343H27.8653L27.9133 26.0503V28.6423H26.8093V20.1703H27.8653V20.9863H27.9133C28.1053 20.6823 28.3773 20.4383 28.7293 20.2543C29.0893 20.0703 29.4853 19.9783 29.9173 19.9783C30.6933 19.9783 31.3493 20.2823 31.8853 20.8903C32.4373 21.5063 32.7133 22.2463 32.7133 23.1103C32.7133 23.9823 32.4373 24.7223 31.8853 25.3303C31.3493 25.9383 30.6933 26.2423 29.9173 26.2423ZM33.3885 23.1103C33.3885 22.2063 33.6725 21.4583 34.2405 20.8663C34.8165 20.2743 35.5405 19.9783 36.4125 19.9783C37.2845 19.9783 38.0045 20.2743 38.5725 20.8663C39.1485 21.4583 39.4365 22.2063 39.4365 23.1103C39.4365 24.0223 39.1485 24.7703 38.5725 25.3543C38.0045 25.9463 37.2845 26.2423 36.4125 26.2423C35.5405 26.2423 34.8165 25.9463 34.2405 25.3543C33.6725 24.7623 33.3885 24.0143 33.3885 23.1103ZM34.4925 23.1103C34.4925 23.7423 34.6765 24.2543 35.0445 24.6463C35.4125 25.0383 35.8685 25.2343 36.4125 25.2343C36.9565 25.2343 37.4125 25.0383 37.7805 24.6463C38.1485 24.2543 38.3325 23.7423 38.3325 23.1103C38.3325 22.4863 38.1485 21.9783 37.7805 21.5863C37.4045 21.1863 36.9485 20.9863 36.4125 20.9863C35.8765 20.9863 35.4205 21.1863 35.0445 21.5863C34.6765 21.9783 34.4925 22.4863 34.4925 23.1103Z" fill="black"/>
<path d="M92.21 0H78.6145V4.57715H92.21V0Z" fill="black"/>
<path d="M83.1463 4.57715H78.6145V27.2399H83.1463V4.57715Z" fill="black"/>
<path d="M92.1956 22.7046H83.1465V27.24H92.1956V22.7046Z" fill="black"/>
<path d="M92.1961 27.2364V22.7046H92.187C92.2115 22.7046 94.6822 22.6692 97.0397 21.4628C99.9645 19.9664 101.39 17.4078 101.39 13.6409C101.39 9.87404 99.9709 7.31537 97.0497 5.81896C94.6931 4.61259 92.2287 4.57724 92.2042 4.57724H92.2142V0.0454102C92.352 0.0454102 95.643 0.0644438 98.9404 1.69681C100.959 2.69381 102.576 4.08508 103.744 5.82531C105.187 7.96796 105.919 10.5973 105.919 13.6409C105.919 16.6845 105.187 19.3148 103.744 21.4574C102.571 23.1976 100.952 24.5862 98.9313 25.5859C95.6276 27.2174 92.3347 27.2364 92.1961 27.2364Z" fill="black"/>
<path d="M132.997 0.0454102H105.806V4.57724H132.997V0.0454102Z" fill="black"/>
<path d="M162 0.0454102H134.809V4.57724H162V0.0454102Z" fill="black"/>
<path d="M121.864 4.57715H117.311V27.2363H121.864V4.57715Z" fill="black"/>
<path d="M139.317 4.57715H134.764V27.2363H139.317V4.57715Z" fill="black"/>
<path d="M134.809 11.3541V15.9067L157.468 15.9067V11.3541L134.809 11.3541Z" fill="black"/>
<path d="M134.809 22.6944V27.2471H161.955V22.6944H134.809Z" fill="black"/>
<path d="M59.6236 27.2472C67.1477 27.2472 73.2472 21.1477 73.2472 13.6236C73.2472 6.09949 67.1477 0 59.6236 0C52.0995 0 46 6.09949 46 13.6236C46 21.1477 52.0995 27.2472 59.6236 27.2472Z" fill="white"/>
</g>
<defs>
<filter id="filter0_d_1_38" x="2.39099" y="0" width="163.609" height="36.6423" filterUnits="userSpaceOnUse" color-interpolation-filters="sRGB">
<feFlood flood-opacity="0" result="BackgroundImageFix"/>
<feColorMatrix in="SourceAlpha" type="matrix" values="0 0 0 0 0 0 0 0 0 0 0 0 0 0 0 0 0 0 127 0" result="hardAlpha"/>
<feOffset dy="4"/>
<feGaussianBlur stdDeviation="2"/>
<feComposite in2="hardAlpha" operator="out"/>
<feColorMatrix type="matrix" values="0 0 0 0 0 0 0 0 0 0 0 0 0 0 0 0 0 0 0.25 0"/>
<feBlend mode="normal" in2="BackgroundImageFix" result="effect1_dropShadow_1_38"/>
<feBlend mode="normal" in="SourceGraphic" in2="effect1_dropShadow_1_38" result="shape"/>
</filter>
</defs>
</svg>
